<svg xmlns="http://www.w3.org/2000/svg" version="1.1" xmlns:xlink="http://www.w3.org/1999/xlink" xmlns:svgjs="http://svgjs.dev/svgjs" width="1000" height="275" viewBox="0 0 1000 275"><g transform="matrix(1,0,0,1,-0.6060342580033193,-0.21725419067553275)"><svg viewBox="0 0 396 109" data-background-color="#97978d" preserveAspectRatio="xMidYMid meet" height="275" width="1000" xmlns="http://www.w3.org/2000/svg" xmlns:xlink="http://www.w3.org/1999/xlink"><g id="tight-bounds" transform="matrix(1,0,0,1,0.2400104338306619,0.08611166103139567)"><svg viewBox="0 0 395.52 108.82777314478821" height="108.82777314478821" width="395.52"><g><svg viewBox="0 0 653.6038391041802 179.8398319392" height="108.82777314478821" width="395.52"><g transform="matrix(1,0,0,1,256.1062391041803,43.37047719619953)"><svg viewBox="0 0 397.4975999999999 93.09887754680094" height="93.09887754680094" width="397.4975999999999"><g id="textblocktransform"><svg viewBox="0 0 397.4975999999999 93.09887754680094" height="93.09887754680094" width="397.4975999999999" id="textblock"><g><rect width="397.4975999999999" height="3.9929399201969" x="0" y="48.98066256623767" fill="#374151" opacity="1" stroke-width="0" stroke="transparent" fill-opacity="1" class="rect-o-0" data-fill-palette-color="primary" rx="1%" id="o-0" data-palette-color="#374151"></rect></g><g transform="matrix(1,0,0,1,0.9887999999999693,0)"><svg viewBox="0 0 395.52 44.2769375293565" height="44.2769375293565" width="395.52"><g transform="matrix(1,0,0,1,0,0)"><svg width="395.52" viewBox="0 -35.75 319.3299865722656 35.75" height="44.2769375293565" data-palette-color="#374151"><path d="M34.95-34.95L21.05-19.5 33.4-2.15 37.55-2.15 37.55 0 25.85 0 15.6-13.8 12.1-9.9 12.1 0 0 0 0-2.15 4.3-2.15 4.3-34.95 12.1-34.95 12.1-20.6 25.3-34.95 34.95-34.95ZM47.6-2.15L51.9-2.15 51.9 0 35.5 0 35.5-2.15 39.8-2.15 39.8-34.95 47.6-34.95 47.6-2.15ZM51.35-2.15L56.2-2.15 56.2-34.95 63.5-34.95 80.65-12.45 80.65-34.95 88.45-34.95 88.45-2.15 93.3-2.15 93.3 0 80.65 0 64-21.9 64 0 51.35 0 51.35-2.15ZM123.54-2.15L130.24-2.15 130.24 0 92.74 0 92.74-2.15 103.59-2.15Q99.59-4.5 97.32-8.53 95.04-12.55 95.04-17.65L95.04-17.65Q95.04-25.35 100.37-30.55 105.69-35.75 113.22-35.75 120.74-35.75 126.29-30.8L126.29-30.8 122.24-24.95Q119.89-27 117.92-27.78 115.94-28.55 113.64-28.55L113.64-28.55Q109.19-28.55 106.14-25.53 103.09-22.5 103.09-17.55 103.09-12.6 106.02-9.63 108.94-6.65 112.99-6.65 117.04-6.65 119.74-8.2L119.74-8.2 119.74-17.8 127.59-17.8 127.59-5.4Q125.89-3.5 123.54-2.15L123.54-2.15ZM130.24-2.15L143.44-2.15 143.44 0 130.24 0 130.24-2.15ZM168.94-2.15L175.34-2.15 175.34 0 143.44 0 143.44-2.15 150.24-2.15Q147.49-3.55 145.24-5.75L145.24-5.75 149.89-11.45Q155.54-6.5 160.34-6.5L160.34-6.5Q162.49-6.5 163.71-7.43 164.94-8.35 164.94-9.93 164.94-11.5 163.64-12.43 162.34-13.35 158.49-14.3L158.49-14.3Q152.39-15.75 149.56-18.07 146.74-20.4 146.74-25.38 146.74-30.35 150.31-33.05 153.89-35.75 159.24-35.75L159.24-35.75Q162.74-35.75 166.24-34.55 169.74-33.35 172.34-31.15L172.34-31.15 168.39-25.45Q163.84-28.9 158.99-28.9L158.99-28.9Q157.04-28.9 155.91-27.98 154.79-27.05 154.79-25.53 154.79-24 156.16-23.1 157.54-22.2 162.51-20.98 167.49-19.75 170.24-17.3 172.99-14.85 172.99-10.5L172.99-10.5Q172.99-5.1 168.94-2.15L168.94-2.15ZM209.14-2.15L213.44-2.15 213.44 0 201.34 0 201.34-13.75 187.44-13.75 187.44 0 175.34 0 175.34-2.15 179.64-2.15 179.64-34.95 187.44-34.95 187.44-20.35 201.34-20.35 201.34-34.95 209.14-34.95 209.14-2.15ZM243.58-2.15L254.73-2.15 254.73 0 213.43 0 213.43-2.15 224.58-2.15Q220.48-4.5 218.11-8.6 215.73-12.7 215.73-17.7L215.73-17.7Q215.73-25.4 221.03-30.58 226.33-35.75 234.08-35.75 241.83-35.75 247.13-30.58 252.43-25.4 252.43-17.7L252.43-17.7Q252.43-12.7 250.03-8.6 247.63-4.5 243.58-2.15L243.58-2.15ZM244.48-17.68Q244.48-22.35 241.48-25.65 238.48-28.95 234.11-28.95 229.73-28.95 226.73-25.65 223.73-22.35 223.73-17.68 223.73-13 226.73-9.73 229.73-6.45 234.11-6.45 238.48-6.45 241.48-9.73 244.48-13 244.48-17.68ZM254.18-2.15L259.03-2.15 259.03-34.95 284.23-34.95 284.23-28 266.83-28 266.83-20.8 282.48-20.8 282.48-14.15 266.83-14.15 266.83-6.9 284.78-6.9 284.78-2.15 289.63-2.15 289.63 0 254.18 0 254.18-2.15ZM312.93-2.15L319.33-2.15 319.33 0 287.43 0 287.43-2.15 294.23-2.15Q291.48-3.55 289.23-5.75L289.23-5.75 293.88-11.45Q299.53-6.5 304.33-6.5L304.33-6.5Q306.48-6.5 307.7-7.43 308.93-8.35 308.93-9.93 308.93-11.5 307.63-12.43 306.33-13.35 302.48-14.3L302.48-14.3Q296.38-15.75 293.55-18.07 290.73-20.4 290.73-25.38 290.73-30.35 294.3-33.05 297.88-35.75 303.23-35.75L303.23-35.75Q306.73-35.75 310.23-34.55 313.73-33.35 316.33-31.15L316.33-31.15 312.38-25.45Q307.83-28.9 302.98-28.9L302.98-28.9Q301.03-28.9 299.9-27.98 298.78-27.05 298.78-25.53 298.78-24 300.15-23.1 301.53-22.2 306.5-20.98 311.48-19.75 314.23-17.3 316.98-14.85 316.98-10.5L316.98-10.5Q316.98-5.1 312.93-2.15L312.93-2.15Z" opacity="1" transform="matrix(1,0,0,1,0,0)" fill="#374151" class="undefined-text-0" data-fill-palette-color="primary" id="text-0"></path></svg></g></svg></g><g transform="matrix(1,0,0,1,0,57.67732752331574)"><svg viewBox="0 0 395.52 35.4215500234852" height="35.4215500234852" width="395.52"><g transform="matrix(1,0,0,1,0,0)"><svg width="395.52" viewBox="1.6500000953674316 -41.349998474121094 588.449951171875 52.69999694824219" height="35.4215500234852" data-palette-color="#374151"><path d="M1.65-37.2L11.35-38.2 11.35 0 1.65 0 1.65-37.2ZM17.8-26.7L27.1-26.7 21-15 27.35 0 17 0 11.55-14.6 17.8-26.7ZM69.09-26.7L78.79-26.7 78.79 0 69.09 0 69.09-26.7ZM73.94-41.35Q76.29-41.35 77.79-39.88 79.29-38.4 79.29-36.15L79.29-36.15Q79.29-33.9 77.79-32.43 76.29-30.95 73.94-30.95L73.94-30.95Q71.59-30.95 70.09-32.43 68.59-33.9 68.59-36.15L68.59-36.15Q68.59-38.4 70.09-39.88 71.59-41.35 73.94-41.35L73.94-41.35ZM139.19-27.7Q142.24-27.7 143.99-25.65 145.74-23.6 145.74-19.95L145.74-19.95 145.74 0 136.04 0 136.04-18.65Q136.04-20.5 135.04-20.5L135.04-20.5Q134.09-20.5 132.54-18.1L132.54-18.1 132.54 0 122.84 0 122.84-26.7 131.34-26.7 131.99-23.95Q133.59-25.9 135.29-26.8 136.99-27.7 139.19-27.7L139.19-27.7ZM211.63-31.5L213.83-24.95Q211.58-23.75 206.98-23.75L206.98-23.75Q209.53-22.7 210.68-21.08 211.83-19.45 211.83-16.75L211.83-16.75Q211.83-14.2 210.51-12.2 209.18-10.2 206.68-9.05 204.18-7.9 200.83-7.9L200.83-7.9Q199.73-7.9 198.33-8.1L198.33-8.1Q197.73-7.75 197.73-7.05L197.73-7.05Q197.73-6.4 198.21-6.05 198.68-5.7 200.13-5.7L200.13-5.7 203.23-5.7Q208.08-5.7 210.81-3.55 213.53-1.4 213.53 2.15L213.53 2.15Q213.53 6.4 209.98 8.88 206.43 11.35 199.88 11.35L199.88 11.35Q194.98 11.35 192.23 10.25 189.48 9.15 188.41 7.23 187.33 5.3 187.33 2.5L187.33 2.5 196.03 2.5Q196.03 4.05 196.83 4.67 197.63 5.3 200.03 5.3L200.03 5.3Q202.23 5.3 203.03 4.63 203.83 3.95 203.83 2.85L203.83 2.85Q203.83 0.7 201.13 0.7L201.13 0.7 198.33 0.7Q193.98 0.7 191.96-0.75 189.93-2.2 189.93-4.65L189.93-4.65Q189.93-6.2 190.81-7.6 191.68-9 193.03-9.9L193.03-9.9Q190.58-11.3 189.53-13.13 188.48-14.95 188.48-17.65L188.48-17.65Q188.48-22.45 191.66-25.08 194.83-27.7 200.43-27.6L200.43-27.6Q203.68-27.55 206.23-28.58 208.78-29.6 211.63-31.5L211.63-31.5ZM200.43-21.45Q197.98-21.45 197.98-17.85L197.98-17.85Q197.98-14.1 200.38-14.1L200.38-14.1Q201.63-14.1 202.21-15 202.78-15.9 202.78-18L202.78-18Q202.78-19.9 202.21-20.68 201.63-21.45 200.43-21.45L200.43-21.45ZM316.02-27.7Q318.77-27.7 321.3-26.78 323.82-25.85 325.52-24.3L325.52-24.3 322.12-19.1Q319.32-21 316.72-21L316.72-21Q315.72-21 315.25-20.65 314.77-20.3 314.77-19.65L314.77-19.65Q314.77-19.1 315.07-18.73 315.37-18.35 316.37-17.88 317.37-17.4 319.57-16.6L319.57-16.6Q323.12-15.25 324.8-13.33 326.47-11.4 326.47-8.15L326.47-8.15Q326.47-5.45 325-3.38 323.52-1.3 320.87-0.15 318.22 1 314.77 1L314.77 1Q311.62 1 308.77-0.13 305.92-1.25 303.92-3.2L303.92-3.2 308.42-8.2Q311.62-5.65 314.37-5.65L314.37-5.65Q315.47-5.65 316.07-6.08 316.67-6.5 316.67-7.3L316.67-7.3Q316.67-8 316.37-8.45 316.07-8.9 315.12-9.38 314.17-9.85 312.17-10.55L312.17-10.55Q308.57-11.9 306.9-13.9 305.22-15.9 305.22-18.95L305.22-18.95Q305.22-21.45 306.47-23.45 307.72-25.45 310.15-26.58 312.57-27.7 316.02-27.7L316.02-27.7ZM385.47-27.7Q388.52-27.7 390.27-25.65 392.02-23.6 392.02-19.95L392.02-19.95 392.02 0 382.32 0 382.32-18.65Q382.32-20.5 381.37-20.5L381.37-20.5Q380.37-20.5 378.82-18.1L378.82-18.1 378.82 0 369.12 0 369.12-37.2 378.82-38.2 378.82-24.3Q380.32-26.1 381.89-26.9 383.47-27.7 385.47-27.7L385.47-27.7ZM447.61-27.7Q453.51-27.7 456.89-24.05 460.26-20.4 460.26-13.3L460.26-13.3Q460.26-6.55 456.89-2.78 453.51 1 447.61 1L447.61 1Q441.66 1 438.29-2.65 434.91-6.3 434.91-13.4L434.91-13.4Q434.91-20.2 438.29-23.95 441.66-27.7 447.61-27.7L447.61-27.7ZM447.61-20.75Q446.11-20.75 445.49-19.1 444.86-17.45 444.86-13.4L444.86-13.4Q444.86-9.2 445.49-7.58 446.11-5.95 447.61-5.95L447.61-5.95Q449.11-5.95 449.74-7.6 450.36-9.25 450.36-13.3L450.36-13.3Q450.36-17.45 449.74-19.1 449.11-20.75 447.61-20.75L447.61-20.75ZM526.91-13.7Q526.91-12.4 526.71-10.6L526.71-10.6 512.11-10.6Q512.41-7.8 513.48-6.83 514.56-5.85 516.56-5.85L516.56-5.85Q517.91-5.85 519.21-6.4 520.51-6.95 522.11-8.1L522.11-8.1 526.01-2.9Q524.06-1.15 521.46-0.08 518.86 1 515.76 1L515.76 1Q509.16 1 505.81-2.85 502.46-6.7 502.46-13.25L502.46-13.25Q502.46-17.4 503.83-20.68 505.21-23.95 507.98-25.83 510.76-27.7 514.76-27.7L514.76-27.7Q520.36-27.7 523.63-24.1 526.91-20.5 526.91-13.7L526.91-13.7ZM517.41-16.05L517.41-16.45Q517.41-19.05 516.88-20.33 516.36-21.6 514.91-21.6L514.91-21.6Q513.56-21.6 512.91-20.43 512.26-19.25 512.06-16.05L512.06-16.05 517.41-16.05ZM579.65-27.7Q582.4-27.7 584.93-26.78 587.45-25.85 589.15-24.3L589.15-24.3 585.75-19.1Q582.95-21 580.35-21L580.35-21Q579.35-21 578.88-20.65 578.4-20.3 578.4-19.65L578.4-19.65Q578.4-19.1 578.7-18.73 579-18.35 580-17.88 581-17.4 583.2-16.6L583.2-16.6Q586.75-15.25 588.43-13.33 590.1-11.4 590.1-8.15L590.1-8.15Q590.1-5.45 588.63-3.38 587.15-1.3 584.5-0.15 581.85 1 578.4 1L578.4 1Q575.25 1 572.4-0.13 569.55-1.25 567.55-3.2L567.55-3.2 572.05-8.2Q575.25-5.65 578-5.65L578-5.65Q579.1-5.65 579.7-6.08 580.3-6.5 580.3-7.3L580.3-7.3Q580.3-8 580-8.45 579.7-8.9 578.75-9.38 577.8-9.85 575.8-10.55L575.8-10.55Q572.2-11.9 570.53-13.9 568.85-15.9 568.85-18.95L568.85-18.95Q568.85-21.45 570.1-23.45 571.35-25.45 573.78-26.58 576.2-27.7 579.65-27.7L579.65-27.7Z" opacity="1" transform="matrix(1,0,0,1,0,0)" fill="#374151" class="undefined-text-1" data-fill-palette-color="secondary" id="text-1"></path></svg></g></svg></g></svg></g></svg></g><g><svg viewBox="0 0 245.65351679999995 179.8398319392" height="179.8398319392" width="245.65351679999995"><g><svg xmlns="http://www.w3.org/2000/svg" xmlns:xlink="http://www.w3.org/1999/xlink" version="1.1" x="0" y="0" viewBox="0.30000901222229004 9.099998474121094 64.19998931884766 47" enable-background="new 0 0 65 65" xml:space="preserve" height="179.8398319392" width="245.65351679999995" class="icon-icon-0" data-fill-palette-color="accent" id="icon-0"><g fill="#374151" data-fill-palette-color="accent"><path d="M16.2 34.2c2.5 0 4.7-1.1 6.2-2.9 1.4-1.7 2.6-3.7 3.7-5.9-6.5 1.1-11.7 3.9-14.4 7.5 0 0 0 0 0.1 0C13.1 33.8 14.6 34.2 16.2 34.2z" fill="#374151" data-fill-palette-color="accent"></path><path d="M48.8 34.2L48.8 34.2c1.6 0 3.1-0.4 4.4-1.3 0 0 0 0 0.1 0-2.7-3.6-7.9-6.3-14.4-7.4 1.1 2.2 2.4 4.2 3.7 5.9C44.1 33.1 46.3 34.2 48.8 34.2z" fill="#374151" data-fill-palette-color="accent"></path><path d="M60.7 19.7c-2.1 0-3.8 1.7-3.8 3.8 0 1.7 1.1 3.2 2.7 3.6-0.8 2.1-1.8 3.9-3.1 5.5-0.6 0.8-1.4 1.4-2.2 2-4.2 2.7-10.1 2-13.3-2-1.9-2.4-3.4-5-4.6-7.5-1.5-3.2-2.5-6.3-3.1-8.5 1.7-0.4 2.9-1.9 2.9-3.7 0-2.1-1.7-3.8-3.8-3.8-2.1 0-3.8 1.7-3.8 3.8 0 1.8 1.3 3.3 2.9 3.7-0.6 2.3-1.6 5.3-3.1 8.5-1.2 2.5-2.7 5.2-4.6 7.5-3.2 4.1-9.2 4.7-13.3 2.1-0.8-0.5-1.6-1.2-2.2-2-1.3-1.6-2.3-3.4-3.1-5.5 1.6-0.5 2.7-1.9 2.7-3.6 0-2.1-1.7-3.8-3.8-3.8-2.1 0-3.8 1.7-3.8 3.8 0 2.1 1.7 3.8 3.8 3.8 0.2 0 0.3 0 0.4 0l4.2 24.8H7.3v3.9h50.4v-3.9L56.2 52l4.1-24.8c0.1 0 0.3 0 0.4 0 2.1 0 3.8-1.7 3.8-3.8C64.5 21.4 62.8 19.7 60.7 19.7zM32.5 48.2c-2.9 0-5.2-3.4-5.2-7.7 0-4.2 2.3-7.7 5.2-7.7s5.2 3.4 5.2 7.7C37.7 44.8 35.4 48.2 32.5 48.2z" fill="#374151" data-fill-palette-color="accent"></path></g></svg></g></svg></g></svg></g><defs></defs></svg><rect width="395.52" height="108.82777314478821" fill="none" stroke="none" visibility="hidden"></rect></g></svg></g></svg>