<svg xmlns="http://www.w3.org/2000/svg" version="1.1" xmlns:xlink="http://www.w3.org/1999/xlink" xmlns:svgjs="http://svgjs.dev/svgjs" width="1000" height="1125" viewBox="0 0 1000 1125"><g transform="matrix(1,0,0,1,1.7053025658242404e-13,0)"><svg viewBox="0 0 320 360" data-background-color="#dedede" preserveAspectRatio="xMidYMid meet" height="1125" width="1000" xmlns="http://www.w3.org/2000/svg" xmlns:xlink="http://www.w3.org/1999/xlink"><g id="tight-bounds" transform="matrix(1,0,0,1,0,0)"><svg viewBox="0 0 320 360" height="360" width="320"><g><svg></svg></g><g><svg viewBox="0 0 320 360" height="360" width="320"><g><path xmlns="http://www.w3.org/2000/svg" d="M20.961 227.22l3.726 4.658-1.863-6.056c-0.466-2.795-3.726 0.466-1.863 1.398M25.153 224.425c1.397 2.329 2.795 4.658 2.795 6.987 0 3.261 2.795 4.658 5.123 5.589-3.261-3.726-5.124-13.974-7.918-12.576M204.017 26.929c7.918 0 15.371-0.932 23.756 0.931 20.495 5.124 37.729 15.371 49.374 29.811l32.606 52.169c1.397 13.042 4.192 27.482 3.726 43.319 3.261 0 2.795-4.658 6.521-5.59-3.726 9.316-5.59 20.961-6.521 34.469-2.329-7.453 0-18.632 0.466-24.687-3.261 5.124-5.124 1.397-5.124-0.932 0.466-3.726-1.397-3.261-2.795-4.658-5.124-4.658-8.384-9.782-12.11-17.7 2.329-6.055 2.795-14.905-4.658-19.563-2.329-1.397-5.124-3.726-6.521-7.453-1.863-5.124-5.124-11.179-4.193-19.097 0.466-2.329-6.987 5.124-11.179 1.863-18.166-12.576-36.332-27.016-58.224-39.127-11.645 0-20.029-4.192-24.221-9.316-3.726-4.658-0.932-10.713 4.658-11.179 3.261 0 6.987-0.932 9.782 0.932 0.466-1.863 2.329-4.192 4.657-4.192M157.904 16.215l0.932 0.466c4.658 0.932 6.987 7.453 12.11 5.124 0 3.261 0.466 6.521-0.466 8.85-1.397 3.726-5.59 3.726-8.85 3.726-31.208-1.863-49.374 11.179-68.471 22.358-5.124 3.261-10.713 5.59-14.906 9.782-20.029 18.632-41.921 35.866-47.045 70.335l-4.192 38.195c-0.466 4.192-5.124 8.384-4.192 13.508l3.26 22.824c-3.261-3.261-5.124 0.932-4.192 2.795 0.466 1.397 2.329 6.055 5.124 1.863 3.726 6.987 7.453 20.495 12.576 26.55 15.837 18.632 36.332 35.4 53.101 52.169 4.192-0.932 7.453-0.932 8.384-3.727 1.397 2.795-1.397 5.59-3.726 6.056 7.453 4.658 15.837 8.85 27.016 9.781 14.44 0.932 27.948 3.261 40.524 6.522 6.521-1.863 13.042-2.795 20.029-3.261 2.329 0 3.726-3.726 6.521-4.658l0.466-4.658c2.795 4.192 2.329-1.397 0.466-4.192 3.261 2.795 4.192 5.124 5.589 6.987 0-1.397 3.726-6.521 3.727-0.466l0.931-6.055c1.397-0.932 1.863 5.124 3.261 0.931 1.397-4.192 4.192-0.932 6.987-2.329-0.932 1.863-0.466 5.59 2.794 3.261l3.727-3.261c2.329 5.59 6.055 3.261 7.918 2.329 20.495-13.042 40.99-28.413 60.553-43.784l-0.466 6.055 2.329-7.453c2.329 2.329 4.192 0.466 5.124-0.931 2.795-4.658 6.521-9.316 12.577-13.508-7.453 20.029-16.303 35.866-27.482 48.908l-4.658 5.59c0 3.261-0.932 7.453-4.658 7.918-1.863 0.466-5.59-0.932-8.384 1.863-1.397 1.863 3.261 5.59-0.466 2.795-3.261-2.329-6.521 0-10.248 0.932-2.795 0.932 1.863 3.726 2.795 5.589 0.932 1.863 1.863 3.726 1.398 6.056l-5.124-5.59c-6.055 3.261-9.782 9.316-14.906 13.974-2.329 1.863-1.397 5.124-1.397 7.918-3.261 0-6.987-0.932-8.85 0.932-1.397 1.863-0.932 4.658-0.932 7.453-4.658-0.466-5.124-7.453-9.315-6.056-4.192 0.932-8.85 1.397-12.577 3.727 2.795 5.59-4.658 2.329-3.726 3.26-6.987-4.192-13.042-7.453-20.495-4.658-15.837-5.124-35.4-2.795-49.84-0.931 0-2.329 0.466-4.658-0.466-5.124-0.932 2.329-3.726 1.397-3.26 1.397-8.85-6.055-17.7-9.782-27.016-14.905-8.384 0.932-16.303-3.261-18.632-5.59-6.521-6.055-13.974-2.795-20.029-4.192-13.042-3.261-17.7-16.769-19.098-26.084-0.932-4.658-4.658-6.521-6.055-6.056-6.055-19.563-15.371-37.263-22.824-55.429-1.863-4.658-1.397-9.316-1.397-14.44 2.329 0.932 4.658 0.466 4.192-2.794-2.329-15.371-7.918-27.016-13.974-38.195 3.261-15.837 3.726-34.469 11.179-48.443 6.521-12.576 18.632-19.098 27.016-29.811 2.795-3.726 2.795-8.85 5.59-12.11 9.316-9.316 18.632-19.098 28.879-27.482 4.658-3.726 10.247 0 17.234-1.397 2.329-8.384 11.645-15.837 20.495-13.508 3.726 0.932 11.179-8.85 13.508-9.782 3.726-1.397 1.863 3.726 1.863 6.987 8.85-6.987 20.961-10.713 32.14-14.906" fill="#374151" fill-rule="nonzero" stroke="none" stroke-width="1" stroke-linecap="butt" stroke-linejoin="miter" stroke-miterlimit="10" stroke-dasharray="" stroke-dashoffset="0" font-family="none" font-weight="none" font-size="none" text-anchor="none" style="mix-blend-mode: normal" data-fill-palette-color="tertiary"></path></g><g transform="matrix(1,0,0,1,64.00000000000001,133.27718114239548)"><svg viewBox="0 0 191.99999999999997 93.44563771520902" height="93.44563771520902" width="191.99999999999997"><g><svg viewBox="0 0 191.99999999999997 93.44563771520902" height="93.44563771520902" width="191.99999999999997"><g><svg viewBox="0 0 191.99999999999997 93.44563771520902" height="93.44563771520902" width="191.99999999999997"><g transform="matrix(1,0,0,1,0,55.53245676640677)"><svg viewBox="0 0 191.99999999999997 37.91318094880225" height="37.91318094880225" width="191.99999999999997"><g id="textblocktransform"><svg viewBox="0 0 191.99999999999997 37.91318094880225" height="37.91318094880225" width="191.99999999999997" id="textblock"><g><svg viewBox="0 0 191.99999999999997 21.49365899483325" height="21.49365899483325" width="191.99999999999997"><g transform="matrix(1,0,0,1,0,0)"><svg width="191.99999999999997" viewBox="0 -35.75 319.3299865722656 35.75" height="21.49365899483325" data-palette-color="#374151"><path d="M34.95-34.95L21.05-19.5 33.4-2.15 37.55-2.15 37.55 0 25.85 0 15.6-13.8 12.1-9.9 12.1 0 0 0 0-2.15 4.3-2.15 4.3-34.95 12.1-34.95 12.1-20.6 25.3-34.95 34.95-34.95ZM47.6-2.15L51.9-2.15 51.9 0 35.5 0 35.5-2.15 39.8-2.15 39.8-34.95 47.6-34.95 47.6-2.15ZM51.35-2.15L56.2-2.15 56.2-34.95 63.5-34.95 80.65-12.45 80.65-34.95 88.45-34.95 88.45-2.15 93.3-2.15 93.3 0 80.65 0 64-21.9 64 0 51.35 0 51.35-2.15ZM123.54-2.15L130.24-2.15 130.24 0 92.74 0 92.74-2.15 103.59-2.15Q99.59-4.5 97.32-8.53 95.04-12.55 95.04-17.65L95.04-17.65Q95.04-25.35 100.37-30.55 105.69-35.75 113.22-35.75 120.74-35.75 126.29-30.8L126.29-30.8 122.24-24.95Q119.89-27 117.92-27.78 115.94-28.55 113.64-28.55L113.64-28.55Q109.19-28.55 106.14-25.53 103.09-22.5 103.09-17.55 103.09-12.6 106.02-9.63 108.94-6.65 112.99-6.65 117.04-6.65 119.74-8.2L119.74-8.2 119.74-17.8 127.59-17.8 127.59-5.4Q125.89-3.5 123.54-2.15L123.54-2.15ZM130.24-2.15L143.44-2.15 143.44 0 130.24 0 130.24-2.15ZM168.94-2.15L175.34-2.15 175.34 0 143.44 0 143.44-2.15 150.24-2.15Q147.49-3.55 145.24-5.75L145.24-5.75 149.89-11.45Q155.54-6.5 160.34-6.5L160.34-6.5Q162.49-6.5 163.71-7.43 164.94-8.35 164.94-9.93 164.94-11.5 163.64-12.43 162.34-13.35 158.49-14.3L158.49-14.3Q152.39-15.75 149.56-18.07 146.74-20.4 146.74-25.38 146.74-30.35 150.31-33.05 153.89-35.75 159.24-35.75L159.24-35.75Q162.74-35.75 166.24-34.55 169.74-33.35 172.34-31.15L172.34-31.15 168.39-25.45Q163.84-28.9 158.99-28.9L158.99-28.9Q157.04-28.9 155.91-27.98 154.79-27.05 154.79-25.53 154.79-24 156.16-23.1 157.54-22.2 162.51-20.98 167.49-19.75 170.24-17.3 172.99-14.85 172.99-10.5L172.99-10.5Q172.99-5.1 168.94-2.15L168.94-2.15ZM209.14-2.15L213.44-2.15 213.44 0 201.34 0 201.34-13.75 187.44-13.75 187.44 0 175.34 0 175.34-2.15 179.64-2.15 179.64-34.95 187.44-34.95 187.44-20.35 201.34-20.35 201.34-34.95 209.14-34.95 209.14-2.15ZM243.58-2.15L254.73-2.15 254.73 0 213.43 0 213.43-2.15 224.58-2.15Q220.48-4.5 218.11-8.6 215.73-12.7 215.73-17.7L215.73-17.7Q215.73-25.4 221.03-30.58 226.33-35.75 234.08-35.75 241.83-35.75 247.13-30.58 252.43-25.4 252.43-17.7L252.43-17.7Q252.43-12.7 250.03-8.6 247.63-4.5 243.58-2.15L243.58-2.15ZM244.48-17.68Q244.48-22.35 241.48-25.65 238.48-28.95 234.11-28.95 229.73-28.95 226.73-25.65 223.73-22.35 223.73-17.68 223.73-13 226.73-9.73 229.73-6.45 234.11-6.45 238.48-6.45 241.48-9.73 244.48-13 244.48-17.68ZM254.18-2.15L259.03-2.15 259.03-34.95 284.23-34.95 284.23-28 266.83-28 266.83-20.8 282.48-20.8 282.48-14.15 266.83-14.15 266.83-6.9 284.78-6.9 284.78-2.15 289.63-2.15 289.63 0 254.18 0 254.18-2.15ZM312.93-2.15L319.33-2.15 319.33 0 287.43 0 287.43-2.15 294.23-2.15Q291.48-3.55 289.23-5.75L289.23-5.75 293.88-11.45Q299.53-6.5 304.33-6.5L304.33-6.5Q306.48-6.5 307.7-7.43 308.93-8.35 308.93-9.93 308.93-11.5 307.63-12.43 306.33-13.35 302.48-14.3L302.48-14.3Q296.38-15.75 293.55-18.07 290.73-20.4 290.73-25.38 290.73-30.35 294.3-33.05 297.88-35.75 303.23-35.75L303.23-35.75Q306.73-35.75 310.23-34.55 313.73-33.35 316.33-31.15L316.33-31.15 312.38-25.45Q307.83-28.9 302.98-28.9L302.98-28.9Q301.03-28.9 299.9-27.98 298.78-27.05 298.78-25.53 298.78-24 300.15-23.1 301.53-22.2 306.5-20.98 311.48-19.75 314.23-17.3 316.98-14.85 316.98-10.5L316.98-10.5Q316.98-5.1 312.93-2.15L312.93-2.15Z" opacity="1" transform="matrix(1,0,0,1,0,0)" fill="#374151" class="undefined-text-0" data-fill-palette-color="primary" id="text-0"></path></svg></g></svg></g><g transform="matrix(1,0,0,1,0,24.630099689995298)"><svg viewBox="0 0 191.99999999999997 13.283081258806948" height="13.283081258806948" width="191.99999999999997"><g transform="matrix(1,0,0,1,0,0)"><svg width="191.99999999999997" viewBox="1.6500000953674316 -41.349998474121094 761.75 52.69999694824219" height="13.283081258806948" data-palette-color="#374151"><path d="M1.65-37.2L11.35-38.2 11.35 0 1.65 0 1.65-37.2ZM17.8-26.7L27.1-26.7 21-15 27.35 0 17 0 11.55-14.6 17.8-26.7ZM88.35-26.7L98.05-26.7 98.05 0 88.35 0 88.35-26.7ZM93.2-41.35Q95.55-41.35 97.05-39.88 98.55-38.4 98.55-36.15L98.55-36.15Q98.55-33.9 97.05-32.43 95.55-30.95 93.2-30.95L93.2-30.95Q90.85-30.95 89.35-32.43 87.85-33.9 87.85-36.15L87.85-36.15Q87.85-38.4 89.35-39.88 90.85-41.35 93.2-41.35L93.2-41.35ZM177.7-27.7Q180.75-27.7 182.5-25.65 184.25-23.6 184.25-19.95L184.25-19.95 184.25 0 174.55 0 174.55-18.65Q174.55-20.5 173.55-20.5L173.55-20.5Q172.6-20.5 171.05-18.1L171.05-18.1 171.05 0 161.35 0 161.35-26.7 169.85-26.7 170.5-23.95Q172.1-25.9 173.8-26.8 175.5-27.7 177.7-27.7L177.7-27.7ZM269.4-31.5L271.6-24.95Q269.35-23.75 264.75-23.75L264.75-23.75Q267.3-22.7 268.45-21.08 269.6-19.45 269.6-16.75L269.6-16.75Q269.6-14.2 268.28-12.2 266.95-10.2 264.45-9.05 261.95-7.9 258.6-7.9L258.6-7.9Q257.5-7.9 256.1-8.1L256.1-8.1Q255.5-7.75 255.5-7.05L255.5-7.05Q255.5-6.4 255.98-6.05 256.45-5.7 257.9-5.7L257.9-5.7 261-5.7Q265.85-5.7 268.58-3.55 271.3-1.4 271.3 2.15L271.3 2.15Q271.3 6.4 267.75 8.88 264.2 11.35 257.65 11.35L257.65 11.35Q252.75 11.35 250 10.25 247.25 9.15 246.18 7.23 245.1 5.3 245.1 2.5L245.1 2.5 253.8 2.5Q253.8 4.05 254.6 4.67 255.4 5.3 257.8 5.3L257.8 5.3Q260 5.3 260.8 4.63 261.6 3.95 261.6 2.85L261.6 2.85Q261.6 0.7 258.9 0.7L258.9 0.7 256.1 0.7Q251.75 0.7 249.73-0.75 247.7-2.2 247.7-4.65L247.7-4.65Q247.7-6.2 248.58-7.6 249.45-9 250.8-9.9L250.8-9.9Q248.35-11.3 247.3-13.13 246.25-14.95 246.25-17.65L246.25-17.65Q246.25-22.45 249.43-25.08 252.6-27.7 258.2-27.6L258.2-27.6Q261.45-27.55 264-28.58 266.55-29.6 269.4-31.5L269.4-31.5ZM258.2-21.45Q255.75-21.45 255.75-17.85L255.75-17.85Q255.75-14.1 258.15-14.1L258.15-14.1Q259.4-14.1 259.98-15 260.55-15.9 260.55-18L260.55-18Q260.55-19.9 259.98-20.68 259.4-21.45 258.2-21.45L258.2-21.45ZM412.3-27.7Q415.05-27.7 417.58-26.78 420.1-25.85 421.8-24.3L421.8-24.3 418.4-19.1Q415.6-21 413-21L413-21Q412-21 411.53-20.65 411.05-20.3 411.05-19.65L411.05-19.65Q411.05-19.1 411.35-18.73 411.65-18.35 412.65-17.88 413.65-17.4 415.85-16.6L415.85-16.6Q419.4-15.25 421.08-13.33 422.75-11.4 422.75-8.15L422.75-8.15Q422.75-5.45 421.28-3.38 419.8-1.3 417.15-0.15 414.5 1 411.05 1L411.05 1Q407.9 1 405.05-0.13 402.2-1.25 400.2-3.2L400.2-3.2 404.7-8.2Q407.9-5.65 410.65-5.65L410.65-5.65Q411.75-5.65 412.35-6.08 412.95-6.5 412.95-7.3L412.95-7.3Q412.95-8 412.65-8.45 412.35-8.9 411.4-9.38 410.45-9.85 408.45-10.55L408.45-10.55Q404.85-11.9 403.18-13.9 401.5-15.9 401.5-18.95L401.5-18.95Q401.5-21.45 402.75-23.45 404-25.45 406.43-26.58 408.85-27.7 412.3-27.7L412.3-27.7ZM501-27.7Q504.05-27.7 505.8-25.65 507.55-23.6 507.55-19.95L507.55-19.95 507.55 0 497.85 0 497.85-18.65Q497.85-20.5 496.9-20.5L496.9-20.5Q495.9-20.5 494.35-18.1L494.35-18.1 494.35 0 484.65 0 484.65-37.2 494.35-38.2 494.35-24.3Q495.85-26.1 497.43-26.9 499-27.7 501-27.7L501-27.7ZM582.4-27.7Q588.3-27.7 591.68-24.05 595.05-20.4 595.05-13.3L595.05-13.3Q595.05-6.55 591.68-2.78 588.3 1 582.4 1L582.4 1Q576.45 1 573.08-2.65 569.7-6.3 569.7-13.4L569.7-13.4Q569.7-20.2 573.08-23.95 576.45-27.7 582.4-27.7L582.4-27.7ZM582.4-20.75Q580.9-20.75 580.28-19.1 579.65-17.45 579.65-13.4L579.65-13.4Q579.65-9.2 580.28-7.58 580.9-5.95 582.4-5.95L582.4-5.95Q583.9-5.95 584.53-7.6 585.15-9.25 585.15-13.3L585.15-13.3Q585.15-17.45 584.53-19.1 583.9-20.75 582.4-20.75L582.4-20.75ZM680.95-13.7Q680.95-12.4 680.75-10.6L680.75-10.6 666.15-10.6Q666.45-7.8 667.53-6.83 668.6-5.85 670.6-5.85L670.6-5.85Q671.95-5.85 673.25-6.4 674.55-6.95 676.15-8.1L676.15-8.1 680.05-2.9Q678.1-1.15 675.5-0.08 672.9 1 669.8 1L669.8 1Q663.2 1 659.85-2.85 656.5-6.7 656.5-13.25L656.5-13.25Q656.5-17.4 657.88-20.68 659.25-23.95 662.03-25.83 664.8-27.7 668.8-27.7L668.8-27.7Q674.4-27.7 677.68-24.1 680.95-20.5 680.95-13.7L680.95-13.7ZM671.45-16.05L671.45-16.45Q671.45-19.05 670.93-20.33 670.4-21.6 668.95-21.6L668.95-21.6Q667.6-21.6 666.95-20.43 666.3-19.25 666.1-16.05L666.1-16.05 671.45-16.05ZM752.95-27.7Q755.7-27.7 758.23-26.78 760.75-25.85 762.45-24.3L762.45-24.3 759.05-19.1Q756.25-21 753.65-21L753.65-21Q752.65-21 752.18-20.65 751.7-20.3 751.7-19.65L751.7-19.65Q751.7-19.1 752-18.73 752.3-18.35 753.3-17.88 754.3-17.4 756.5-16.6L756.5-16.6Q760.05-15.25 761.73-13.33 763.4-11.4 763.4-8.15L763.4-8.15Q763.4-5.45 761.93-3.38 760.45-1.3 757.8-0.15 755.15 1 751.7 1L751.7 1Q748.55 1 745.7-0.13 742.85-1.25 740.85-3.2L740.85-3.2 745.35-8.2Q748.55-5.65 751.3-5.65L751.3-5.65Q752.4-5.65 753-6.08 753.6-6.5 753.6-7.3L753.6-7.3Q753.6-8 753.3-8.45 753-8.9 752.05-9.38 751.1-9.85 749.1-10.55L749.1-10.55Q745.5-11.9 743.83-13.9 742.15-15.9 742.15-18.95L742.15-18.95Q742.15-21.45 743.4-23.45 744.65-25.45 747.08-26.58 749.5-27.7 752.95-27.7L752.95-27.7Z" opacity="1" transform="matrix(1,0,0,1,0,0)" fill="#374151" class="undefined-text-1" data-fill-palette-color="secondary" id="text-1"></path></svg></g></svg></g></svg></g></svg></g><g transform="matrix(1,0,0,1,60.21464178591402,0)"><svg viewBox="0 0 71.57071642817193 52.396016071244716" height="52.396016071244716" width="71.57071642817193"><g><svg xmlns="http://www.w3.org/2000/svg" xmlns:xlink="http://www.w3.org/1999/xlink" version="1.1" x="0" y="0" viewBox="0.30000901222229004 9.099998474121094 64.19998931884766 47" enable-background="new 0 0 65 65" xml:space="preserve" height="52.396016071244716" width="71.57071642817193" class="icon-icon-0" data-fill-palette-color="accent" id="icon-0"><g fill="#374151" data-fill-palette-color="accent"><path d="M16.2 34.2c2.5 0 4.7-1.1 6.2-2.9 1.4-1.7 2.6-3.7 3.7-5.9-6.5 1.1-11.7 3.9-14.4 7.5 0 0 0 0 0.1 0C13.1 33.8 14.6 34.2 16.2 34.2z" fill="#374151" data-fill-palette-color="accent"></path><path d="M48.8 34.2L48.8 34.2c1.6 0 3.1-0.4 4.4-1.3 0 0 0 0 0.1 0-2.7-3.6-7.9-6.3-14.4-7.4 1.1 2.2 2.4 4.2 3.7 5.9C44.1 33.1 46.3 34.2 48.8 34.2z" fill="#374151" data-fill-palette-color="accent"></path><path d="M60.7 19.7c-2.1 0-3.8 1.7-3.8 3.8 0 1.7 1.1 3.2 2.7 3.6-0.8 2.1-1.8 3.9-3.1 5.5-0.6 0.8-1.4 1.4-2.2 2-4.2 2.7-10.1 2-13.3-2-1.9-2.4-3.4-5-4.6-7.5-1.5-3.2-2.5-6.3-3.1-8.5 1.7-0.4 2.9-1.9 2.9-3.7 0-2.1-1.7-3.8-3.8-3.8-2.1 0-3.8 1.7-3.8 3.8 0 1.8 1.3 3.3 2.9 3.7-0.6 2.3-1.6 5.3-3.1 8.5-1.2 2.5-2.7 5.2-4.6 7.5-3.2 4.1-9.2 4.7-13.3 2.1-0.8-0.5-1.6-1.2-2.2-2-1.3-1.6-2.3-3.4-3.1-5.5 1.6-0.5 2.7-1.9 2.7-3.6 0-2.1-1.7-3.8-3.8-3.8-2.1 0-3.8 1.7-3.8 3.8 0 2.1 1.7 3.8 3.8 3.8 0.2 0 0.3 0 0.4 0l4.2 24.8H7.3v3.9h50.4v-3.9L56.2 52l4.1-24.8c0.1 0 0.3 0 0.4 0 2.1 0 3.8-1.7 3.8-3.8C64.5 21.4 62.8 19.7 60.7 19.7zM32.5 48.2c-2.9 0-5.2-3.4-5.2-7.7 0-4.2 2.3-7.7 5.2-7.7s5.2 3.4 5.2 7.7C37.7 44.8 35.4 48.2 32.5 48.2z" fill="#374151" data-fill-palette-color="accent"></path></g></svg></g></svg></g><g></g></svg></g></svg></g></svg></g></svg></g><defs></defs></svg><rect width="320" height="360" fill="none" stroke="none" visibility="hidden"></rect></g></svg></g></svg>