<svg width="24" height="24" viewBox="0 0 24 24" fill="none" xmlns="http://www.w3.org/2000/svg">
<g clip-path="url(#clip0_380_317)">
<path d="M7.99996 8.79996H9.59996M14.4 15.2H16M16 7.99996L7.99996 16M10.8816 1.26396L9.07516 3.06716C8.77911 3.36374 8.37741 3.53063 7.95836 3.53116H5.11356C4.6943 3.53116 4.29222 3.69771 3.99576 3.99416C3.69931 4.29062 3.53276 4.6927 3.53276 5.11196V7.95676C3.53223 8.37581 3.36534 8.77751 3.06876 9.07356L1.26396 10.8832C0.96762 11.1796 0.801147 11.5816 0.801147 12.0008C0.801147 12.4199 0.96762 12.8219 1.26396 13.1184L3.07196 14.9248C3.21859 15.0714 3.3349 15.2455 3.41424 15.4372C3.49358 15.6288 3.53439 15.8342 3.53436 16.0416V18.8864C3.53436 19.76 4.24156 20.4672 5.11516 20.4672H7.95996C8.37916 20.4672 8.78076 20.6336 9.07676 20.9312L10.8848 22.7376C11.1812 23.0339 11.5832 23.2004 12.0024 23.2004C12.4215 23.2004 12.8235 23.0339 13.12 22.7376L14.9264 20.9296C15.2227 20.6336 15.6243 20.4673 16.0432 20.4672H18.888C19.3072 20.4672 19.7093 20.3006 20.0058 20.0042C20.3022 19.7077 20.4688 19.3056 20.4688 18.8864V16.0416C20.4688 15.6224 20.6352 15.2208 20.9328 14.9248L22.7392 13.1168C23.0355 12.8203 23.202 12.4183 23.202 11.9992C23.202 11.58 23.0355 11.178 22.7392 10.8816L20.9312 9.07516C20.6352 8.77885 20.4689 8.37718 20.4688 7.95836V5.11356C20.4688 4.6943 20.3022 4.29222 20.0058 3.99576C19.7093 3.69931 19.3072 3.53276 18.888 3.53276H16.0432C15.6241 3.53223 15.2224 3.36534 14.9264 3.06876L13.1168 1.26396C12.8203 0.96762 12.4183 0.801147 11.9992 0.801147C11.58 0.801147 11.178 0.96762 10.8816 1.26396V1.26396Z" stroke="black"/>
</g>
<defs>
<clipPath id="clip0_380_317">
<rect width="24" height="24" fill="white"/>
</clipPath>
</defs>
</svg>
